<svg version="1.1" xmlns="http://www.w3.org/2000/svg" xmlns:xlink="http://www.w3.org/1999/xlink" viewBox="0 0 440 120" width="220" height="60">
    <defs>
    <linearGradient x1="0" y1="120" x2="440" y2="120" gradientUnits="userSpaceOnUse" id="grad">
        <stop offset="0" stop-color="#ed4264"></stop>
        <stop offset="1" stop-color="#ffedbc"></stop>
    </linearGradient>
    </defs>
    <g fill="url(#grad)" fill-rule="none" stroke-miterlimit="10">
    <g fill-rule="evenodd">
        <path d="m63.45533,97.89226c4.78403,-1.85601 9.05306,-4.7217 12.80708,-8.59706c7.68805,-7.79705 11.53207,-17.56211 11.53207,-29.29519c0,-11.73308 -3.86302,-21.51814 -11.59007,-29.35519c-3.72202,-3.84202 -7.96405,-6.68504 -12.72908,-8.52906c-4.68203,-1.91701 -9.51806,-2.87602 -14.50809,-2.87602l-20.25113,0c-4.60423,0 -8.54126,1.63501 -11.81118,4.90503c-3.26992,3.27002 -4.90493,7.20705 -4.90493,11.81108l0,5.15303c0,4.58203 1.60261,8.50705 4.80783,11.77508c3.27695,3.34135 7.24638,5.01203 11.90828,5.01203l19.82013,0c0.211,0.447 0.316,1.14901 0.316,2.10401c0,0.91801 -0.112,1.61901 -0.337,2.10401l-19.79913,0c-4.6619,0 -8.63132,1.67068 -11.90828,5.01203c-3.20522,3.26802 -4.80783,7.19305 -4.80783,11.77508l0,5.15303c0,4.60403 1.63491,8.54106 4.90493,11.81108c3.26992,3.27002 7.20695,4.90503 11.81118,4.90503l20.25113,0c4.98203,0 9.81206,-0.95601 14.48809,-2.86802l0,0.00002zm9.43406,-11.92208c-3.29735,3.40336 -7.01938,5.9077 -11.16607,7.51305l-0.043,0.017c-4.10669,1.68134 -8.34439,2.52202 -12.71308,2.52202l-20.25113,0c-3.29612,0 -6.11664,-1.17201 -8.46155,-3.51702c-2.34492,-2.34502 -3.51742,-5.16503 -3.51742,-8.46105l0,-5.15303c0,-3.29202 1.15091,-6.11104 3.45272,-8.45805c2.34842,-2.39502 5.19053,-3.59202 8.52626,-3.59202l20.03613,0c1.34701,0 2.38102,-0.416 3.10202,-1.24801c1.15701,-1.37501 1.73601,-3.24002 1.73601,-5.59304c0,-2.35302 -0.537,-4.16803 -1.61101,-5.44704c-0.80301,-0.92901 -1.87801,-1.39401 -3.22702,-1.39401l-20.03613,0c-3.33572,0 -6.17784,-1.19701 -8.52626,-3.59202c-2.30181,-2.34702 -3.45262,-5.16603 -3.45262,-8.45805l0,-5.15303c0,-3.29602 1.17241,-6.11604 3.51732,-8.46105c2.34495,-2.34468 5.16547,-3.51702 8.46155,-3.51702l20.25113,0c4.36803,0 8.60606,0.84101 12.71308,2.52302c4.17469,1.61534 7.88172,4.09536 11.12107,7.44005c6.83738,6.93538 10.25607,15.62177 10.25607,26.05917c0,10.43807 -3.38902,19.09412 -10.16807,25.97017l0,-0.00004z"></path>
        <path d="m48.96724,33.45184c3.14902,0 6.29704,0.644 9.23106,1.86001c3.00502,1.14501 5.65304,3.00602 7.87105,5.29603c5.00903,5.08003 7.51405,11.59207 7.51405,19.39213c0,7.80005 -2.50502,14.31209 -7.51405,19.39213c-2.21801,2.29001 -4.86603,4.15103 -7.87105,5.29603c-2.93402,1.21601 -6.08204,1.86001 -9.23106,1.86001l-20.25113,0c-1.35961,0 -2.50452,-1.14501 -2.50452,-2.50402l0,-5.15303c0,-1.43101 1.14491,-2.57602 2.50452,-2.57602l20.03613,0c4.29403,0 7.65705,-1.50201 10.37607,-4.65103c2.64802,-3.14902 3.93603,-6.94104 3.93603,-11.66408c0,-4.72303 -1.28801,-8.51505 -3.93603,-11.66408c-2.71902,-3.14902 -6.08204,-4.65103 -10.37607,-4.65103l-20.03613,0c-1.35961,0 -2.50452,-1.14501 -2.50452,-2.57602l0,-5.15303c0,-1.35901 1.14491,-2.50402 2.50452,-2.50402l20.25113,0.00002z"></path>
    </g>
    </g>
</svg>